<svg xmlns="http://www.w3.org/2000/svg" xmlns:xlink="http://www.w3.org/1999/xlink" width="500" zoomAndPan="magnify" viewBox="0 0 375 374.999991" height="500" preserveAspectRatio="xMidYMid meet" version="1.0"><defs><clipPath id="bff749b919"><path d="M 33.441406 54.859375 L 352.941406 54.859375 L 352.941406 305.359375 L 33.441406 305.359375 Z M 33.441406 54.859375 " clip-rule="nonzero"/></clipPath></defs><g clip-path="url(#bff749b919)"><path fill="#ffffff" d="M 267.765625 208.460938 C 268.683594 207.882812 269.46875 208.058594 270.097656 208.980469 C 270.726562 209.898438 270.640625 210.707031 269.839844 211.402344 C 244.265625 235.355469 218.175781 245.894531 191.570312 243.019531 C 185.234375 242.441406 178.496094 240.914062 171.359375 238.445312 C 164.214844 235.964844 157.96875 233.371094 152.609375 230.671875 C 147.25 227.960938 140.949219 224.855469 133.6875 221.339844 C 126.429688 217.820312 120.207031 215.085938 115.027344 213.128906 C 106.042969 209.785156 98.898438 207.28125 93.605469 205.613281 C 88.300781 203.945312 81.769531 202.5 73.996094 201.292969 C 66.222656 200.085938 58.53125 199.648438 50.925781 199.996094 L 44.878906 200.515625 C 41.542969 200.863281 38.199219 201.320312 34.859375 201.894531 C 34.28125 202.011719 33.910156 201.78125 33.738281 201.203125 C 33.5625 200.625 33.769531 200.222656 34.339844 199.996094 C 39.296875 198.269531 44.25 196.882812 49.199219 195.851562 L 120.730469 116.886719 C 115.542969 115.847656 111.429688 115.160156 108.371094 114.816406 C 105.316406 114.46875 101.660156 114.296875 97.402344 114.296875 C 93.140625 114.296875 89.308594 115.015625 85.914062 116.457031 C 82.511719 117.902344 79.316406 120.058594 76.324219 122.933594 C 75.746094 123.164062 75.285156 123.019531 74.945312 122.503906 C 74.597656 121.984375 74.65625 121.496094 75.117188 121.035156 C 78.339844 117.351562 81.59375 114.238281 84.878906 111.703125 C 88.160156 109.167969 91.445312 107.300781 94.726562 106.085938 C 98.007812 104.878906 101.003906 103.953125 103.714844 103.320312 C 106.414062 102.691406 109.558594 102.515625 113.128906 102.800781 C 116.699219 103.089844 119.578125 103.433594 121.769531 103.839844 C 123.957031 104.242188 127.007812 104.847656 130.929688 105.65625 L 171.707031 60.730469 L 103.28125 60.730469 L 59.21875 95.636719 C 58.757812 95.984375 58.328125 95.957031 57.921875 95.554688 C 57.519531 95.148438 57.492188 94.71875 57.839844 94.257812 L 84.097656 54.859375 L 176.359375 54.859375 L 177.226562 60.730469 L 135.414062 106.6875 C 138.289062 107.382812 140.824219 107.894531 143.015625 108.242188 C 145.203125 108.589844 147.738281 108.847656 150.613281 109.019531 C 153.488281 109.191406 156.140625 109.132812 158.558594 108.847656 C 160.980469 108.558594 163.628906 108.011719 166.507812 107.203125 C 169.382812 106.398438 172.261719 105.300781 175.144531 103.921875 C 175.492188 103.691406 175.808594 103.75 176.09375 104.097656 C 176.382812 104.441406 176.351562 104.789062 176.011719 105.136719 C 173.246094 108.703125 170.195312 111.585938 166.851562 113.773438 C 163.507812 115.964844 160.3125 117.515625 157.261719 118.441406 C 154.207031 119.367188 150.695312 119.886719 146.722656 119.996094 C 142.75 120.109375 139.296875 119.96875 136.359375 119.566406 C 133.417969 119.160156 129.757812 118.558594 125.386719 117.75 L 55.757812 194.464844 C 61.054688 193.660156 66.441406 193.257812 71.914062 193.257812 C 77.382812 193.257812 82.421875 193.488281 87.03125 193.949219 C 91.640625 194.410156 96.851562 195.328125 102.667969 196.714844 C 108.480469 198.097656 113.378906 199.367188 117.351562 200.515625 C 121.324219 201.664062 126.511719 203.457031 132.90625 205.871094 C 139.296875 208.289062 144.246094 210.214844 147.765625 211.660156 C 151.273438 213.097656 156.488281 215.316406 163.398438 218.308594 C 165.472656 219.109375 167.027344 219.746094 168.066406 220.207031 C 186.957031 228.386719 203.886719 231.640625 218.863281 229.972656 C 233.835938 228.300781 250.140625 221.125 267.765625 208.460938 Z M 179.402344 133.941406 C 177.386719 136.246094 176.378906 138.261719 176.378906 139.988281 L 176.722656 218.910156 C 181.839844 220.835938 186.800781 222.363281 191.597656 223.5 C 191.648438 202.820312 191.707031 173.835938 191.757812 136.535156 L 191.757812 126.167969 L 188.304688 126.167969 L 185.363281 128.242188 C 183.40625 129.738281 181.417969 131.636719 179.402344 133.941406 Z M 352.613281 270.433594 C 352.265625 270.085938 352.09375 270.144531 352.09375 270.605469 C 351.746094 276.597656 350.105469 281.691406 347.171875 285.894531 C 344.230469 290.101562 340.316406 293.328125 335.425781 295.570312 C 330.527344 297.816406 325.316406 299.425781 319.789062 300.410156 C 314.261719 301.382812 308.214844 301.878906 301.648438 301.878906 C 284.253906 301.878906 267.007812 298.625 249.902344 292.117188 C 232.796875 285.609375 213.296875 275.554688 191.417969 261.96875 C 191.457031 261.160156 191.488281 256.324219 191.527344 247.480469 C 191.390625 247.46875 191.261719 247.457031 191.128906 247.441406 C 186.570312 247.023438 181.789062 246.132812 176.839844 244.792969 L 176.902344 259.035156 C 172.179688 259.035156 165.960938 259.84375 158.246094 261.453125 C 150.53125 263.066406 145.226562 265.253906 142.347656 268.019531 C 142.117188 268.25 142.089844 268.484375 142.261719 268.714844 C 142.4375 268.945312 142.691406 269.058594 143.039062 269.058594 C 152.371094 269.292969 161.550781 270.640625 170.59375 273.125 C 179.636719 275.601562 188.304688 278.535156 196.597656 281.9375 C 204.890625 285.332031 213.703125 288.785156 223.035156 292.300781 C 232.367188 295.8125 243.824219 298.8125 257.417969 301.289062 C 271.007812 303.765625 285.691406 305.113281 301.476562 305.351562 C 311.496094 305.464844 320.160156 304.457031 327.476562 302.328125 C 334.789062 300.195312 340.785156 296.539062 345.449219 291.359375 C 350.117188 286.171875 352.621094 279.613281 352.964844 271.660156 C 353.074219 271.300781 352.960938 270.894531 352.613281 270.433594 Z M 352.613281 270.433594 " fill-opacity="1" fill-rule="nonzero"/></g></svg>