<svg xmlns="http://www.w3.org/2000/svg" xmlns:xlink="http://www.w3.org/1999/xlink" width="275" zoomAndPan="magnify" viewBox="0 0 206.25 44.999999" height="60" preserveAspectRatio="xMidYMid meet" version="1.0"><defs><g/><clipPath id="3d3bace941"><path d="M 3 0.015625 L 6 0.015625 L 6 4 L 3 4 Z M 3 0.015625 " clip-rule="nonzero"/></clipPath><clipPath id="8c067a3624"><path d="M 12 0.015625 L 15 0.015625 L 15 4 L 12 4 Z M 12 0.015625 " clip-rule="nonzero"/></clipPath><clipPath id="3f0a520437"><path d="M 15 0.015625 L 17 0.015625 L 17 4 L 15 4 Z M 15 0.015625 " clip-rule="nonzero"/></clipPath><clipPath id="bd6a130dd1"><path d="M 17 0.015625 L 20 0.015625 L 20 4 L 17 4 Z M 17 0.015625 " clip-rule="nonzero"/></clipPath><clipPath id="c49ba9a930"><path d="M 20 0.015625 L 23 0.015625 L 23 4 L 20 4 Z M 20 0.015625 " clip-rule="nonzero"/></clipPath><clipPath id="b3f7759148"><rect x="0" width="24" y="0" height="5"/></clipPath><clipPath id="367afbd634"><path d="M 30.957031 9.261719 L 67.574219 9.261719 L 67.574219 38.40625 L 30.957031 38.40625 Z M 30.957031 9.261719 " clip-rule="nonzero"/></clipPath><clipPath id="366384df0b"><rect x="0" width="117" y="0" height="24"/></clipPath></defs><path stroke-linecap="round" transform="matrix(0, 0.747283, -0.747283, 0, 55.751833, 9.300124)" fill="none" stroke-linejoin="miter" d="M 0.497471 0.499044 L 31.270426 0.499044 " stroke="#000000" stroke-width="1" stroke-opacity="1" stroke-miterlimit="4"/><g transform="matrix(1, 0, 0, 1, 112, 29)"><g clip-path="url(#b3f7759148)"><g fill="#000000" fill-opacity="1"><g transform="translate(1.085736, 3.098838)"><g><path d="M 0.6875 -1.671875 L 0.6875 -1.25 L 1.375 -1.25 L 1.375 -0.859375 L 0.6875 -0.859375 L 0.6875 -0.40625 L 1.453125 -0.40625 L 1.453125 0 L 0.1875 0 L 0.1875 -2.078125 L 1.453125 -2.078125 L 1.453125 -1.671875 Z M 0.6875 -1.671875 "/></g></g></g><g clip-path="url(#3d3bace941)"><g fill="#000000" fill-opacity="1"><g transform="translate(3.425926, 3.098838)"><g><path d="M 0.9375 0.015625 C 0.78125 0.015625 0.640625 -0.00390625 0.515625 -0.046875 C 0.398438 -0.0976562 0.304688 -0.171875 0.234375 -0.265625 C 0.160156 -0.367188 0.125 -0.488281 0.125 -0.625 L 0.671875 -0.625 C 0.671875 -0.539062 0.691406 -0.476562 0.734375 -0.4375 C 0.785156 -0.40625 0.847656 -0.390625 0.921875 -0.390625 C 0.992188 -0.390625 1.050781 -0.40625 1.09375 -0.4375 C 1.144531 -0.46875 1.171875 -0.515625 1.171875 -0.578125 C 1.171875 -0.628906 1.148438 -0.671875 1.109375 -0.703125 C 1.078125 -0.742188 1.035156 -0.773438 0.984375 -0.796875 C 0.929688 -0.816406 0.859375 -0.835938 0.765625 -0.859375 C 0.628906 -0.898438 0.519531 -0.941406 0.4375 -0.984375 C 0.351562 -1.023438 0.28125 -1.085938 0.21875 -1.171875 C 0.15625 -1.253906 0.125 -1.363281 0.125 -1.5 C 0.125 -1.6875 0.191406 -1.832031 0.328125 -1.9375 C 0.472656 -2.050781 0.660156 -2.109375 0.890625 -2.109375 C 1.117188 -2.109375 1.300781 -2.050781 1.4375 -1.9375 C 1.582031 -1.832031 1.660156 -1.679688 1.671875 -1.484375 L 1.125 -1.484375 C 1.113281 -1.554688 1.085938 -1.609375 1.046875 -1.640625 C 1.003906 -1.679688 0.945312 -1.703125 0.875 -1.703125 C 0.8125 -1.703125 0.757812 -1.6875 0.71875 -1.65625 C 0.6875 -1.625 0.671875 -1.578125 0.671875 -1.515625 C 0.671875 -1.453125 0.703125 -1.398438 0.765625 -1.359375 C 0.828125 -1.316406 0.925781 -1.273438 1.0625 -1.234375 C 1.195312 -1.191406 1.304688 -1.148438 1.390625 -1.109375 C 1.472656 -1.066406 1.546875 -1.003906 1.609375 -0.921875 C 1.671875 -0.847656 1.703125 -0.75 1.703125 -0.625 C 1.703125 -0.5 1.671875 -0.390625 1.609375 -0.296875 C 1.546875 -0.203125 1.457031 -0.125 1.34375 -0.0625 C 1.226562 -0.0078125 1.09375 0.015625 0.9375 0.015625 Z M 0.9375 0.015625 "/></g></g></g></g><g fill="#000000" fill-opacity="1"><g transform="translate(5.985879, 3.098838)"><g><path d="M 1.6875 -2.078125 L 1.6875 -1.671875 L 1.125 -1.671875 L 1.125 0 L 0.625 0 L 0.625 -1.671875 L 0.078125 -1.671875 L 0.078125 -2.078125 Z M 1.6875 -2.078125 "/></g></g></g><g fill="#000000" fill-opacity="1"><g transform="translate(8.474559, 3.098838)"><g><path d="M 0.96875 -2.078125 C 1.1875 -2.078125 1.375 -2.035156 1.53125 -1.953125 C 1.695312 -1.867188 1.828125 -1.742188 1.921875 -1.578125 C 2.015625 -1.421875 2.0625 -1.242188 2.0625 -1.046875 C 2.0625 -0.835938 2.015625 -0.65625 1.921875 -0.5 C 1.828125 -0.34375 1.695312 -0.21875 1.53125 -0.125 C 1.375 -0.0390625 1.1875 0 0.96875 0 L 0.1875 0 L 0.1875 -2.078125 Z M 0.9375 -0.4375 C 1.125 -0.4375 1.269531 -0.488281 1.375 -0.59375 C 1.488281 -0.695312 1.546875 -0.847656 1.546875 -1.046875 C 1.546875 -1.234375 1.488281 -1.378906 1.375 -1.484375 C 1.269531 -1.597656 1.125 -1.65625 0.9375 -1.65625 L 0.6875 -1.65625 L 0.6875 -0.4375 Z M 0.9375 -0.4375 "/></g></g></g><g fill="#000000" fill-opacity="1"><g transform="translate(11.367128, 3.098838)"><g/></g></g><g clip-path="url(#8c067a3624)"><g fill="#000000" fill-opacity="1"><g transform="translate(12.730256, 3.098838)"><g><path d="M 0.109375 -0.40625 C 0.179688 -0.457031 0.210938 -0.484375 0.203125 -0.484375 C 0.398438 -0.640625 0.550781 -0.769531 0.65625 -0.875 C 0.769531 -0.976562 0.863281 -1.085938 0.9375 -1.203125 C 1.019531 -1.316406 1.0625 -1.425781 1.0625 -1.53125 C 1.0625 -1.613281 1.039062 -1.675781 1 -1.71875 C 0.96875 -1.757812 0.914062 -1.78125 0.84375 -1.78125 C 0.769531 -1.78125 0.707031 -1.753906 0.65625 -1.703125 C 0.613281 -1.648438 0.59375 -1.570312 0.59375 -1.46875 L 0.109375 -1.46875 C 0.109375 -1.632812 0.144531 -1.769531 0.21875 -1.875 C 0.289062 -1.988281 0.378906 -2.070312 0.484375 -2.125 C 0.597656 -2.1875 0.722656 -2.21875 0.859375 -2.21875 C 1.097656 -2.21875 1.273438 -2.15625 1.390625 -2.03125 C 1.515625 -1.914062 1.578125 -1.757812 1.578125 -1.5625 C 1.578125 -1.351562 1.503906 -1.15625 1.359375 -0.96875 C 1.210938 -0.789062 1.023438 -0.613281 0.796875 -0.4375 L 1.609375 -0.4375 L 1.609375 -0.03125 L 0.109375 -0.03125 Z M 0.109375 -0.40625 "/></g></g></g></g><g clip-path="url(#3f0a520437)"><g fill="#000000" fill-opacity="1"><g transform="translate(15.159539, 3.098838)"><g><path d="M 0.140625 -1.109375 C 0.140625 -1.453125 0.203125 -1.722656 0.328125 -1.921875 C 0.460938 -2.117188 0.675781 -2.21875 0.96875 -2.21875 C 1.257812 -2.21875 1.46875 -2.117188 1.59375 -1.921875 C 1.726562 -1.722656 1.796875 -1.453125 1.796875 -1.109375 C 1.796875 -0.765625 1.726562 -0.492188 1.59375 -0.296875 C 1.46875 -0.109375 1.257812 -0.015625 0.96875 -0.015625 C 0.675781 -0.015625 0.460938 -0.109375 0.328125 -0.296875 C 0.203125 -0.492188 0.140625 -0.765625 0.140625 -1.109375 Z M 1.296875 -1.109375 C 1.296875 -1.304688 1.273438 -1.457031 1.234375 -1.5625 C 1.191406 -1.675781 1.101562 -1.734375 0.96875 -1.734375 C 0.832031 -1.734375 0.738281 -1.675781 0.6875 -1.5625 C 0.644531 -1.457031 0.625 -1.304688 0.625 -1.109375 C 0.625 -0.972656 0.632812 -0.859375 0.65625 -0.765625 C 0.675781 -0.679688 0.707031 -0.613281 0.75 -0.5625 C 0.800781 -0.507812 0.875 -0.484375 0.96875 -0.484375 C 1.0625 -0.484375 1.128906 -0.507812 1.171875 -0.5625 C 1.222656 -0.613281 1.253906 -0.679688 1.265625 -0.765625 C 1.285156 -0.859375 1.296875 -0.972656 1.296875 -1.109375 Z M 1.296875 -1.109375 "/></g></g></g></g><g clip-path="url(#bd6a130dd1)"><g fill="#000000" fill-opacity="1"><g transform="translate(17.829374, 3.098838)"><g><path d="M 0.109375 -0.40625 C 0.179688 -0.457031 0.210938 -0.484375 0.203125 -0.484375 C 0.398438 -0.640625 0.550781 -0.769531 0.65625 -0.875 C 0.769531 -0.976562 0.863281 -1.085938 0.9375 -1.203125 C 1.019531 -1.316406 1.0625 -1.425781 1.0625 -1.53125 C 1.0625 -1.613281 1.039062 -1.675781 1 -1.71875 C 0.96875 -1.757812 0.914062 -1.78125 0.84375 -1.78125 C 0.769531 -1.78125 0.707031 -1.753906 0.65625 -1.703125 C 0.613281 -1.648438 0.59375 -1.570312 0.59375 -1.46875 L 0.109375 -1.46875 C 0.109375 -1.632812 0.144531 -1.769531 0.21875 -1.875 C 0.289062 -1.988281 0.378906 -2.070312 0.484375 -2.125 C 0.597656 -2.1875 0.722656 -2.21875 0.859375 -2.21875 C 1.097656 -2.21875 1.273438 -2.15625 1.390625 -2.03125 C 1.515625 -1.914062 1.578125 -1.757812 1.578125 -1.5625 C 1.578125 -1.351562 1.503906 -1.15625 1.359375 -0.96875 C 1.210938 -0.789062 1.023438 -0.613281 0.796875 -0.4375 L 1.609375 -0.4375 L 1.609375 -0.03125 L 0.109375 -0.03125 Z M 0.109375 -0.40625 "/></g></g></g></g><g clip-path="url(#c49ba9a930)"><g fill="#000000" fill-opacity="1"><g transform="translate(20.258657, 3.098838)"><g><path d="M 0.140625 -0.390625 L 0.140625 -0.796875 L 1.078125 -2.140625 L 1.65625 -2.140625 L 1.65625 -0.828125 L 1.890625 -0.828125 L 1.890625 -0.390625 L 1.65625 -0.390625 L 1.65625 0 L 1.140625 0 L 1.140625 -0.390625 Z M 1.171875 -1.578125 L 0.6875 -0.828125 L 1.171875 -0.828125 Z M 1.171875 -1.578125 "/></g></g></g></g></g></g><g clip-path="url(#367afbd634)"><path fill="#000000" d="M 58.058594 27.027344 C 58.164062 26.960938 58.253906 26.980469 58.328125 27.085938 C 58.402344 27.191406 58.390625 27.285156 58.296875 27.367188 C 55.339844 30.136719 52.324219 31.355469 49.246094 31.023438 C 48.511719 30.957031 47.734375 30.777344 46.910156 30.492188 C 46.082031 30.207031 45.359375 29.90625 44.738281 29.59375 C 44.121094 29.28125 43.390625 28.921875 42.550781 28.515625 C 41.710938 28.109375 40.992188 27.792969 40.394531 27.566406 C 39.355469 27.179688 38.527344 26.890625 37.914062 26.695312 C 37.304688 26.503906 36.546875 26.335938 35.648438 26.195312 C 34.75 26.058594 33.859375 26.007812 32.980469 26.046875 L 32.28125 26.105469 C 31.894531 26.148438 31.507812 26.199219 31.121094 26.265625 C 31.054688 26.28125 31.011719 26.253906 30.992188 26.1875 C 30.972656 26.121094 30.996094 26.074219 31.0625 26.046875 C 31.636719 25.847656 32.207031 25.6875 32.78125 25.566406 L 41.054688 16.433594 C 40.453125 16.316406 39.976562 16.234375 39.625 16.195312 C 39.269531 16.15625 38.847656 16.136719 38.355469 16.136719 C 37.863281 16.136719 37.417969 16.21875 37.027344 16.386719 C 36.632812 16.550781 36.261719 16.800781 35.917969 17.132812 C 35.851562 17.160156 35.796875 17.144531 35.757812 17.085938 C 35.71875 17.023438 35.722656 16.96875 35.777344 16.914062 C 36.152344 16.488281 36.527344 16.128906 36.90625 15.835938 C 37.285156 15.542969 37.667969 15.324219 38.046875 15.1875 C 38.425781 15.046875 38.773438 14.9375 39.085938 14.867188 C 39.398438 14.792969 39.761719 14.773438 40.175781 14.804688 C 40.585938 14.839844 40.921875 14.878906 41.171875 14.925781 C 41.425781 14.972656 41.777344 15.042969 42.234375 15.136719 L 46.949219 9.941406 L 39.035156 9.941406 L 33.9375 13.976562 C 33.886719 14.015625 33.835938 14.015625 33.789062 13.96875 C 33.742188 13.921875 33.738281 13.871094 33.78125 13.816406 L 36.816406 9.261719 L 47.488281 9.261719 L 47.585938 9.941406 L 42.75 15.253906 C 43.085938 15.335938 43.378906 15.394531 43.628906 15.433594 C 43.882812 15.476562 44.175781 15.503906 44.507812 15.523438 C 44.84375 15.546875 45.148438 15.539062 45.429688 15.503906 C 45.707031 15.472656 46.015625 15.410156 46.347656 15.316406 C 46.679688 15.222656 47.011719 15.09375 47.347656 14.9375 C 47.386719 14.910156 47.421875 14.914062 47.457031 14.957031 C 47.488281 14.996094 47.484375 15.035156 47.445312 15.074219 C 47.125 15.488281 46.773438 15.820312 46.386719 16.074219 C 46 16.328125 45.632812 16.507812 45.277344 16.613281 C 44.925781 16.722656 44.519531 16.78125 44.058594 16.792969 C 43.601562 16.808594 43.199219 16.792969 42.859375 16.746094 C 42.519531 16.699219 42.097656 16.628906 41.59375 16.535156 L 33.539062 25.40625 C 34.152344 25.3125 34.773438 25.265625 35.40625 25.265625 C 36.039062 25.265625 36.621094 25.292969 37.15625 25.347656 C 37.6875 25.402344 38.292969 25.507812 38.964844 25.667969 C 39.636719 25.828125 40.203125 25.972656 40.664062 26.105469 C 41.121094 26.238281 41.722656 26.445312 42.460938 26.726562 C 43.199219 27.007812 43.773438 27.230469 44.179688 27.394531 C 44.585938 27.5625 45.1875 27.820312 45.988281 28.164062 C 46.226562 28.257812 46.40625 28.332031 46.527344 28.382812 C 48.710938 29.332031 50.671875 29.707031 52.402344 29.511719 C 54.132812 29.320312 56.019531 28.492188 58.058594 27.027344 Z M 47.839844 18.40625 C 47.605469 18.675781 47.488281 18.90625 47.488281 19.105469 L 47.527344 28.234375 C 48.121094 28.457031 48.695312 28.632812 49.25 28.765625 C 49.253906 26.375 49.261719 23.019531 49.269531 18.707031 L 49.269531 17.507812 L 48.867188 17.507812 L 48.527344 17.75 C 48.300781 17.921875 48.070312 18.140625 47.839844 18.40625 Z M 67.871094 34.191406 C 67.832031 34.152344 67.8125 34.160156 67.8125 34.214844 C 67.769531 34.90625 67.582031 35.496094 67.242188 35.980469 C 66.902344 36.46875 66.449219 36.839844 65.882812 37.101562 C 65.316406 37.359375 64.714844 37.546875 64.074219 37.660156 C 63.4375 37.773438 62.738281 37.828125 61.976562 37.828125 C 59.964844 37.828125 57.972656 37.453125 55.992188 36.699219 C 54.015625 35.949219 51.757812 34.785156 49.226562 33.214844 C 49.234375 33.121094 49.238281 32.5625 49.242188 31.539062 C 49.226562 31.535156 49.210938 31.535156 49.195312 31.535156 C 48.667969 31.484375 48.113281 31.382812 47.542969 31.226562 L 47.550781 32.875 C 47.003906 32.875 46.285156 32.96875 45.390625 33.15625 C 44.5 33.339844 43.886719 33.59375 43.554688 33.914062 C 43.527344 33.941406 43.523438 33.96875 43.542969 33.996094 C 43.5625 34.019531 43.59375 34.035156 43.632812 34.035156 C 44.710938 34.0625 45.773438 34.21875 46.820312 34.503906 C 47.867188 34.789062 48.867188 35.128906 49.828125 35.523438 C 50.785156 35.917969 51.804688 36.316406 52.886719 36.722656 C 53.964844 37.128906 55.289062 37.476562 56.863281 37.761719 C 58.433594 38.046875 60.132812 38.203125 61.957031 38.230469 C 63.117188 38.246094 64.117188 38.128906 64.964844 37.882812 C 65.808594 37.636719 66.503906 37.210938 67.042969 36.613281 C 67.582031 36.011719 67.871094 35.253906 67.910156 34.335938 C 67.925781 34.292969 67.910156 34.246094 67.871094 34.191406 Z M 67.871094 34.191406 " fill-opacity="1" fill-rule="nonzero"/></g><g transform="matrix(1, 0, 0, 1, 65, 7)"><g clip-path="url(#366384df0b)"><g fill="#000000" fill-opacity="1"><g transform="translate(0.0788839, 17.652882)"><g><path d="M 3.84375 -2.1875 L 7.546875 -2.1875 L 7.546875 0 L 1.03125 0 L 1.03125 -11.59375 L 3.84375 -11.59375 Z M 3.84375 -2.1875 "/></g></g></g><g fill="#000000" fill-opacity="1"><g transform="translate(7.954202, 17.652882)"><g><path d="M 3.84375 -11.59375 L 3.84375 0 L 1.03125 0 L 1.03125 -11.59375 Z M 3.84375 -11.59375 "/></g></g></g><g fill="#000000" fill-opacity="1"><g transform="translate(12.824681, 17.652882)"><g><path d="M 11.90625 -11.59375 L 7.796875 0 L 4.265625 0 L 0.15625 -11.59375 L 3.15625 -11.59375 L 6.03125 -2.84375 L 8.921875 -11.59375 Z M 11.90625 -11.59375 "/></g></g></g><g fill="#000000" fill-opacity="1"><g transform="translate(24.877059, 17.652882)"><g><path d="M 3.84375 -11.59375 L 3.84375 0 L 1.03125 0 L 1.03125 -11.59375 Z M 3.84375 -11.59375 "/></g></g></g><g fill="#000000" fill-opacity="1"><g transform="translate(29.747538, 17.652882)"><g><path d="M 11.390625 0 L 8.578125 0 L 3.84375 -7.15625 L 3.84375 0 L 1.03125 0 L 1.03125 -11.59375 L 3.84375 -11.59375 L 8.578125 -4.40625 L 8.578125 -11.59375 L 11.390625 -11.59375 Z M 11.390625 0 "/></g></g></g><g fill="#000000" fill-opacity="1"><g transform="translate(42.163139, 17.652882)"><g><path d="M 8.71875 -7.921875 C 8.507812 -8.304688 8.207031 -8.597656 7.8125 -8.796875 C 7.425781 -9.003906 6.96875 -9.109375 6.4375 -9.109375 C 5.53125 -9.109375 4.800781 -8.804688 4.25 -8.203125 C 3.695312 -7.609375 3.421875 -6.8125 3.421875 -5.8125 C 3.421875 -4.75 3.707031 -3.914062 4.28125 -3.3125 C 4.863281 -2.707031 5.660156 -2.40625 6.671875 -2.40625 C 7.367188 -2.40625 7.957031 -2.582031 8.4375 -2.9375 C 8.914062 -3.289062 9.265625 -3.796875 9.484375 -4.453125 L 5.890625 -4.453125 L 5.890625 -6.546875 L 12.046875 -6.546875 L 12.046875 -3.921875 C 11.828125 -3.210938 11.46875 -2.554688 10.96875 -1.953125 C 10.46875 -1.347656 9.832031 -0.859375 9.0625 -0.484375 C 8.289062 -0.109375 7.421875 0.078125 6.453125 0.078125 C 5.304688 0.078125 4.285156 -0.171875 3.390625 -0.671875 C 2.492188 -1.171875 1.796875 -1.863281 1.296875 -2.75 C 0.796875 -3.644531 0.546875 -4.664062 0.546875 -5.8125 C 0.546875 -6.957031 0.796875 -7.976562 1.296875 -8.875 C 1.796875 -9.769531 2.488281 -10.46875 3.375 -10.96875 C 4.269531 -11.46875 5.289062 -11.71875 6.4375 -11.71875 C 7.820312 -11.71875 8.988281 -11.382812 9.9375 -10.71875 C 10.894531 -10.050781 11.53125 -9.117188 11.84375 -7.921875 Z M 8.71875 -7.921875 "/></g></g></g><g fill="#000000" fill-opacity="1"><g transform="translate(54.743841, 17.652882)"><g/></g></g><g fill="#000000" fill-opacity="1"><g transform="translate(58.243982, 17.652882)"><g><path d="M 9.359375 -11.59375 L 9.359375 -9.328125 L 6.296875 -9.328125 L 6.296875 0 L 3.46875 0 L 3.46875 -9.328125 L 0.390625 -9.328125 L 0.390625 -11.59375 Z M 9.359375 -11.59375 "/></g></g></g><g fill="#000000" fill-opacity="1"><g transform="translate(68.001456, 17.652882)"><g><path d="M 6.5 0.109375 C 5.414062 0.109375 4.414062 -0.140625 3.5 -0.640625 C 2.59375 -1.148438 1.875 -1.859375 1.34375 -2.765625 C 0.8125 -3.671875 0.546875 -4.691406 0.546875 -5.828125 C 0.546875 -6.960938 0.8125 -7.976562 1.34375 -8.875 C 1.875 -9.78125 2.59375 -10.488281 3.5 -11 C 4.414062 -11.507812 5.414062 -11.765625 6.5 -11.765625 C 7.59375 -11.765625 8.59375 -11.507812 9.5 -11 C 10.414062 -10.488281 11.132812 -9.78125 11.65625 -8.875 C 12.175781 -7.976562 12.4375 -6.960938 12.4375 -5.828125 C 12.4375 -4.691406 12.171875 -3.671875 11.640625 -2.765625 C 11.109375 -1.859375 10.390625 -1.148438 9.484375 -0.640625 C 8.585938 -0.140625 7.59375 0.109375 6.5 0.109375 Z M 6.5 -2.453125 C 7.425781 -2.453125 8.164062 -2.757812 8.71875 -3.375 C 9.28125 -4 9.5625 -4.816406 9.5625 -5.828125 C 9.5625 -6.847656 9.28125 -7.664062 8.71875 -8.28125 C 8.164062 -8.894531 7.425781 -9.203125 6.5 -9.203125 C 5.570312 -9.203125 4.828125 -8.894531 4.265625 -8.28125 C 3.710938 -7.675781 3.4375 -6.859375 3.4375 -5.828125 C 3.4375 -4.804688 3.710938 -3.988281 4.265625 -3.375 C 4.828125 -2.757812 5.570312 -2.453125 6.5 -2.453125 Z M 6.5 -2.453125 "/></g></g></g><g fill="#000000" fill-opacity="1"><g transform="translate(80.978396, 17.652882)"><g/></g></g><g fill="#000000" fill-opacity="1"><g transform="translate(84.478538, 17.652882)"><g><path d="M 4.03125 -2.3125 L 9.015625 -2.3125 L 9.015625 0 L 0.828125 0 L 0.828125 -2.140625 L 5.78125 -9.28125 L 0.828125 -9.28125 L 0.828125 -11.59375 L 9.015625 -11.59375 L 9.015625 -9.453125 Z M 4.03125 -2.3125 "/></g></g></g><g fill="#000000" fill-opacity="1"><g transform="translate(94.318554, 17.652882)"><g><path d="M 3.84375 -9.328125 L 3.84375 -6.984375 L 7.625 -6.984375 L 7.625 -4.8125 L 3.84375 -4.8125 L 3.84375 -2.265625 L 8.125 -2.265625 L 8.125 0 L 1.03125 0 L 1.03125 -11.59375 L 8.125 -11.59375 L 8.125 -9.328125 Z M 3.84375 -9.328125 "/></g></g></g><g fill="#000000" fill-opacity="1"><g transform="translate(103.250519, 17.652882)"><g><path d="M 3.84375 -11.59375 L 3.84375 0 L 1.03125 0 L 1.03125 -11.59375 Z M 3.84375 -11.59375 "/></g></g></g><g fill="#000000" fill-opacity="1"><g transform="translate(108.121003, 17.652882)"><g><path d="M 3.84375 -2.1875 L 7.546875 -2.1875 L 7.546875 0 L 1.03125 0 L 1.03125 -11.59375 L 3.84375 -11.59375 Z M 3.84375 -2.1875 "/></g></g></g></g></g></svg>